<svg data-v-423bf9ae="" xmlns="http://www.w3.org/2000/svg" viewBox="0 0 273 107" class="iconLeft"><!----><!----><!----><g data-v-423bf9ae="" id="8f1cca13-3fb2-4df9-924e-4940474495c3" fill="#ffffff" transform="matrix(5.545286655426025,0,0,5.545286655426025,101.03642272949219,1.1927947998046875)"><path d="M2.39 7.78L2.39 7.78L2.39 7.78Q2.95 6.52 3.70 5.86L3.70 5.86L3.70 5.86Q4.44 5.19 5.31 5.19L5.31 5.19L5.31 5.19Q5.50 5.19 5.68 5.22L5.68 5.22L5.68 5.22Q5.87 5.25 6.03 5.31L6.03 5.31L6.03 5.31Q5.14 5.85 4.36 7.97L4.36 7.97L4.36 7.97Q3.58 10.08 3.58 11.82L3.58 11.82L3.58 11.82Q3.58 12.60 3.79 13.02L3.79 13.02L3.79 13.02Q4.00 13.44 4.40 13.44L4.40 13.44L4.40 13.44Q4.97 13.44 5.57 12.70L5.57 12.70L5.57 12.70Q6.17 11.96 6.64 10.71L6.64 10.71L6.64 10.71Q6.97 9.83 7.15 8.88L7.15 8.88L7.15 8.88Q7.32 7.94 7.32 7.08L7.32 7.08L7.32 7.08Q7.32 5.68 6.92 5.16L6.92 5.16L6.92 5.16Q6.51 4.63 5.53 4.63L5.53 4.63L5.53 4.63Q3.81 4.63 2.65 5.65L2.65 5.65L2.65 5.65Q1.50 6.66 1.50 8.23L1.50 8.23L1.50 8.23Q1.50 8.43 1.52 8.57L1.52 8.57L1.52 8.57Q1.54 8.72 1.61 8.88L1.61 8.88L1.61 8.88Q1.62 8.93 1.63 8.95L1.63 8.95L1.63 8.95Q1.64 8.97 1.64 8.99L1.64 8.99L1.64 8.99Q0.92 8.99 0.57 8.70L0.57 8.70L0.57 8.70Q0.22 8.41 0.22 7.81L0.22 7.81L0.22 7.81Q0.22 7.03 0.78 6.27L0.78 6.27L0.78 6.27Q1.33 5.50 2.31 4.93L2.31 4.93L2.31 4.93Q3.09 4.48 4.01 4.23L4.01 4.23L4.01 4.23Q4.93 3.99 5.87 3.99L5.87 3.99L5.87 3.99Q7.52 3.99 8.35 4.89L8.35 4.89L8.35 4.89Q9.18 5.80 9.18 7.57L9.18 7.57L9.18 7.57Q9.18 8.74 8.85 9.97L8.85 9.97L8.85 9.97Q8.51 11.20 7.92 12.17L7.92 12.17L7.92 12.17Q7.21 13.34 6.22 13.96L6.22 13.96L6.22 13.96Q5.22 14.57 4.02 14.57L4.02 14.57L4.02 14.57Q2.79 14.57 2.15 13.86L2.15 13.86L2.15 13.86Q1.51 13.15 1.51 11.76L1.51 11.76L1.51 11.76Q1.51 10.86 1.75 9.78L1.75 9.78L1.75 9.78Q1.99 8.69 2.39 7.78ZM11.44 6.50L11.44 6.50L11.44 6.50Q11.44 5.42 12.37 4.70L12.37 4.70L12.37 4.70Q13.30 3.99 14.67 3.99L14.67 3.99L14.67 3.99Q15.74 3.99 16.33 4.42L16.33 4.42L16.33 4.42Q16.93 4.86 16.93 5.67L16.93 5.67L16.93 5.67Q16.93 6.30 16.61 6.69L16.61 6.69L16.61 6.69Q16.30 7.08 15.78 7.08L15.78 7.08L15.78 7.08Q15.58 7.08 15.42 7.01L15.42 7.01L15.42 7.01Q15.26 6.94 15.13 6.79L15.13 6.79L15.13 6.79Q15.41 6.62 15.59 6.29L15.59 6.29L15.59 6.29Q15.76 5.95 15.76 5.59L15.76 5.59L15.76 5.59Q15.76 5.14 15.50 4.89L15.50 4.89L15.50 4.89Q15.23 4.65 14.73 4.65L14.73 4.65L14.73 4.65Q14.13 4.65 13.78 4.98L13.78 4.98L13.78 4.98Q13.44 5.32 13.44 5.92L13.44 5.92L13.44 5.92Q13.44 6.41 13.69 6.85L13.69 6.85L13.69 6.85Q13.94 7.29 14.78 8.04L14.78 8.04L14.78 8.04Q15.89 9.00 16.24 9.71L16.24 9.71L16.24 9.71Q16.59 10.42 16.59 11.28L16.59 11.28L16.59 11.28Q16.59 12.88 15.48 13.83L15.48 13.83L15.48 13.83Q14.38 14.78 12.66 14.78L12.66 14.78L12.66 14.78Q11.28 14.78 10.49 14.15L10.49 14.15L10.49 14.15Q9.69 13.52 9.69 12.38L9.69 12.38L9.69 12.38Q9.69 11.37 10.29 10.72L10.29 10.72L10.29 10.72Q10.89 10.08 11.75 10.08L11.75 10.08L11.75 10.08Q12.28 10.08 12.61 10.32L12.61 10.32L12.61 10.32Q12.95 10.57 12.98 11.00L12.98 11.00L12.98 11.00Q12.25 11.00 11.79 11.35L11.79 11.35L11.79 11.35Q11.34 11.70 11.34 12.32L11.34 12.32L11.34 12.32Q11.34 12.91 11.70 13.29L11.70 13.29L11.70 13.29Q12.07 13.66 12.68 13.66L12.68 13.66L12.68 13.66Q13.41 13.66 13.86 13.16L13.86 13.16L13.86 13.16Q14.31 12.66 14.31 11.80L14.31 11.80L14.31 11.80Q14.31 11.14 14.01 10.54L14.01 10.54L14.01 10.54Q13.72 9.94 12.80 8.93L12.80 8.93L12.80 8.93Q11.96 8.04 11.70 7.53L11.70 7.53L11.70 7.53Q11.44 7.01 11.44 6.50ZM25.73 4.33L25.73 4.33L25.73 4.33Q26.15 4.33 26.59 4.25L26.59 4.25L26.59 4.25Q27.02 4.17 27.36 4.03L27.36 4.03L27.36 4.03Q27.34 4.93 26.90 5.37L26.90 5.37L26.90 5.37Q26.46 5.81 25.61 5.81L25.61 5.81L25.61 5.81Q25.20 5.81 24.70 5.74L24.70 5.74L24.70 5.74Q24.21 5.67 23.44 5.50L23.44 5.50L21.50 14.49L19.49 14.49L21.48 5.22L21.31 5.22L21.31 5.22Q19.95 5.22 19.31 5.91L19.31 5.91L19.31 5.91Q18.68 6.61 18.68 8.05L18.68 8.05L18.68 8.05Q18.68 8.32 18.71 8.51L18.71 8.51L18.71 8.51Q18.75 8.71 18.83 8.89L18.83 8.89L18.83 8.89Q18.86 8.95 18.86 8.97L18.86 8.97L18.86 8.97Q18.87 8.99 18.87 9.00L18.87 9.00L18.87 9.00Q18.09 9.00 17.73 8.67L17.73 8.67L17.73 8.67Q17.37 8.34 17.37 7.64L17.37 7.64L17.37 7.64Q17.37 5.98 18.63 4.99L18.63 4.99L18.63 4.99Q19.88 4.00 22.15 4.00L22.15 4.00L22.15 4.00Q22.61 4.00 23.04 4.04L23.04 4.04L23.04 4.04Q23.46 4.07 24.14 4.17L24.14 4.17L24.14 4.17Q24.72 4.27 25.05 4.30L25.05 4.30L25.05 4.30Q25.38 4.33 25.73 4.33ZM26.56 11.98L26.56 11.98L26.56 11.98Q26.56 12.66 26.90 13.03L26.90 13.03L26.90 13.03Q27.24 13.40 27.89 13.40L27.89 13.40L27.89 13.40Q28.63 13.40 29.39 12.99L29.39 12.99L29.39 12.99Q30.14 12.59 30.48 11.97L30.48 11.97L30.80 12.11L30.80 12.11Q30.28 13.30 29.14 14.02L29.14 14.02L29.14 14.02Q28 14.74 26.70 14.74L26.70 14.74L26.70 14.74Q25.49 14.74 24.81 14.07L24.81 14.07L24.81 14.07Q24.12 13.40 24.12 12.28L24.12 12.28L24.12 12.28Q24.12 11.06 24.86 9.99L24.86 9.99L24.86 9.99Q25.61 8.92 26.71 8.65L26.71 8.65L26.71 8.65Q26.29 8.36 26.08 7.92L26.08 7.92L26.08 7.92Q25.86 7.49 25.86 6.97L25.86 6.97L25.86 6.97Q25.86 5.80 26.76 4.88L26.76 4.88L26.76 4.88Q27.66 3.96 28.92 3.96L28.92 3.96L28.92 3.96Q29.82 3.96 30.37 4.44L30.37 4.44L30.37 4.44Q30.93 4.91 30.93 5.71L30.93 5.71L30.93 5.71Q30.93 6.33 30.63 6.75L30.63 6.75L30.63 6.75Q30.32 7.17 29.89 7.17L29.89 7.17L29.89 7.17Q29.69 7.17 29.53 7.07L29.53 7.07L29.53 7.07Q29.37 6.97 29.23 6.79L29.23 6.79L29.23 6.79Q29.48 6.71 29.67 6.34L29.67 6.34L29.67 6.34Q29.85 5.96 29.85 5.57L29.85 5.57L29.85 5.57Q29.85 5.21 29.64 5.00L29.64 5.00L29.64 5.00Q29.43 4.79 29.08 4.79L29.08 4.79L29.08 4.79Q28.49 4.79 28.07 5.38L28.07 5.38L28.07 5.38Q27.65 5.98 27.65 6.76L27.65 6.76L27.65 6.76Q27.65 7.46 28.02 7.96L28.02 7.96L28.02 7.96Q28.39 8.46 29.06 8.64L29.06 8.64L29.06 8.64Q28.03 8.88 27.29 9.89L27.29 9.89L27.29 9.89Q26.56 10.91 26.56 11.98Z"></path></g><!----><g data-v-423bf9ae="" id="d27b3bf1-44f1-4b9a-8504-f936bcd8d0d6" transform="matrix(1.0868111848831177,0,0,1.0868111848831177,-13.255263328552246,-0.23894432187080383)" stroke="none" fill="#00A3DD"><g clip-rule="evenodd"><path d="M12.983 10.59l17.018 88.223-5.872-59.049 29.021-1.892-.054-9.883L64.549 1 53.622 18.977z"></path><path d="M59.389 54.548l5.16-53.541-8.74 39.716-19.612 1.045 1.57 20.462-7.766 36.583 12.057-39.899z"></path><path d="M62.8 67.182l.549-10.453-15.979 3.755-.032 11.797-17.337 26.532 21.68-27.616zM65.711 62.394l14.841-4.731 1.509-12.532-15.899 2.095zM72.07 44.502l10.988-1.417 1.581-10.278-8.079-.373L64.549 1l8.43 30.967z"></path><path d="M87.413 31.294l1.256-9.506-9.544-2.694L64.549 1l14.483 22.437-.422 7z"></path></g></g><!----></svg>